<?xml version="1.0" encoding="UTF-8" ?>
<!DOCTYPE svg PUBLIC "-//W3C//DTD SVG 1.1//EN" "http://www.w3.org/Graphics/SVG/1.1/DTD/svg11.dtd">
<svg width="1262pt" height="793pt" viewBox="0 0 1262 793" version="1.1" xmlns="http://www.w3.org/2000/svg">
<path fill="#fffefe" d=" M 0.00 0.00 L 202.28 0.00 C 200.94 23.76 202.01 47.58 201.55 71.37 C 182.85 71.32 164.14 71.34 145.44 71.36 C 145.45 125.67 145.42 179.99 145.46 234.31 C 164.18 234.32 182.90 234.30 201.63 234.32 C 201.63 261.88 201.64 289.45 201.62 317.02 C 201.63 322.23 202.19 327.42 202.29 332.64 C 292.21 332.62 382.13 332.65 472.04 332.63 C 477.04 332.65 482.02 333.48 487.03 333.22 C 500.32 332.12 513.67 332.83 526.99 332.63 C 725.35 332.63 923.71 332.63 1122.08 332.63 C 1122.30 277.84 1122.13 223.05 1122.16 168.26 C 1155.28 167.51 1188.42 167.15 1221.54 166.49 C 1220.83 252.66 1220.11 338.82 1219.41 424.98 C 1219.17 439.42 1219.51 453.87 1218.93 468.29 C 1207.85 467.54 1196.74 468.07 1185.65 467.96 C 1185.47 504.79 1185.56 541.62 1185.60 578.45 C 1196.48 578.31 1207.40 579.01 1218.25 578.05 C 1217.59 608.02 1217.70 638.01 1217.41 668.00 C 1217.38 693.95 1216.74 719.89 1216.71 745.85 C 1163.79 745.86 1110.88 745.84 1057.96 745.86 C 1056.11 745.84 1054.28 745.78 1052.46 745.67 C 1051.30 744.93 1050.15 744.19 1049.02 743.44 C 1043.12 747.35 1035.86 747.83 1029.02 748.48 C 1000.95 749.94 972.92 746.88 945.03 744.01 C 921.01 741.22 897.00 738.20 873.07 734.68 C 869.14 721.30 862.48 708.93 858.17 695.68 C 852.52 679.53 849.69 662.11 852.27 645.07 C 853.88 632.66 858.81 621.06 863.83 609.72 C 870.78 594.74 880.01 580.98 889.58 567.57 C 893.53 562.22 897.57 556.61 903.21 552.91 C 905.98 552.58 908.78 553.71 911.55 554.07 C 940.55 559.78 970.19 555.06 998.94 550.16 C 1013.73 547.44 1028.50 544.46 1042.94 540.23 C 1050.59 537.84 1058.33 535.33 1065.17 531.05 C 1069.06 528.51 1072.87 524.83 1073.38 519.96 C 1074.04 513.77 1068.63 506.82 1062.06 507.66 C 1041.37 509.15 1020.66 510.54 1000.09 513.26 C 983.35 515.33 966.72 518.14 950.06 520.75 C 932.67 523.60 915.20 528.13 900.16 537.62 C 880.10 533.17 860.25 527.73 840.01 524.15 C 817.21 520.47 793.21 518.25 770.91 525.72 C 770.48 523.82 770.07 521.93 769.64 520.04 C 773.62 513.61 775.03 505.31 771.83 498.27 C 766.99 486.81 752.96 481.24 741.23 484.13 C 736.41 485.09 732.36 488.03 728.70 491.17 C 727.32 489.68 725.90 488.22 724.52 486.74 C 719.32 492.06 716.13 499.46 716.74 506.96 C 717.12 513.28 720.27 519.10 724.49 523.70 L 723.76 523.11 C 723.21 531.08 723.02 539.67 727.19 546.80 C 729.98 551.74 735.28 555.17 740.99 555.38 C 747.96 555.73 754.32 552.33 760.15 548.92 C 760.98 570.03 757.50 591.09 752.14 611.46 C 744.62 639.60 733.35 666.71 719.02 692.05 C 709.41 708.86 698.37 724.99 684.91 738.98 C 676.67 747.23 667.52 755.07 656.50 759.28 C 649.39 762.04 641.01 762.47 634.19 758.69 C 631.86 757.41 630.53 755.02 629.10 752.91 C 648.82 736.37 662.63 713.37 670.21 688.93 C 671.67 682.90 674.50 675.40 669.95 670.03 C 665.82 665.69 659.04 667.65 655.09 671.21 C 644.75 680.03 636.93 691.38 629.90 702.92 C 622.17 716.19 615.42 730.62 614.52 746.19 C 603.17 753.43 588.39 755.22 575.90 749.89 C 571.51 748.11 569.16 743.55 567.80 739.28 C 564.81 729.12 565.05 718.40 565.47 707.93 C 565.34 703.54 568.66 700.25 570.62 696.63 C 589.07 665.80 604.37 632.95 614.73 598.51 C 619.76 581.42 623.60 563.86 624.40 546.02 C 624.38 541.12 624.52 535.63 621.47 531.51 C 618.61 527.62 612.61 527.11 608.88 529.99 C 604.99 532.85 602.41 537.06 599.96 541.13 C 591.91 555.16 586.20 570.34 580.50 585.42 C 567.32 622.19 556.68 660.12 552.19 699.00 C 548.90 706.52 543.23 712.82 538.65 719.60 C 531.06 729.76 522.91 739.55 513.62 748.21 C 507.31 745.09 499.98 743.68 493.06 745.46 C 488.67 746.27 485.11 749.05 481.48 751.44 C 478.30 739.89 477.44 727.91 476.64 716.01 C 476.58 713.77 476.34 711.43 477.29 709.34 C 486.12 689.69 492.75 669.12 498.22 648.31 C 504.19 625.31 508.45 601.83 510.44 578.15 C 512.15 556.73 512.16 534.99 508.02 513.83 C 506.93 509.02 505.71 503.54 501.41 500.54 C 497.46 497.83 491.73 499.31 489.07 503.16 C 485.26 508.44 483.60 514.87 481.77 521.03 C 476.65 540.38 473.80 560.24 470.89 580.02 C 465.84 618.80 462.54 657.86 462.41 696.99 C 462.15 701.68 463.51 706.78 461.07 711.08 C 454.21 724.53 445.91 737.47 435.01 748.01 C 424.95 757.69 412.10 764.88 398.10 766.53 C 385.26 768.23 372.24 765.51 360.26 760.94 C 354.69 758.98 349.45 755.79 345.93 750.96 C 339.13 741.79 336.93 730.18 335.75 719.07 C 334.00 696.13 336.53 673.13 340.19 650.51 C 343.60 629.71 348.12 609.13 353.03 588.64 C 358.58 564.20 365.53 540.05 370.05 515.38 C 370.79 508.84 372.94 500.61 367.57 495.42 C 363.19 491.23 356.36 493.77 352.76 497.72 C 342.78 508.02 335.20 520.33 327.28 532.21 C 304.88 565.48 292.18 603.96 280.32 641.94 C 277.95 649.43 275.80 656.98 273.61 664.53 C 271.48 672.40 267.44 679.54 263.73 686.74 C 255.85 701.14 246.33 715.12 233.15 725.17 C 222.86 733.06 210.02 737.59 197.04 737.60 C 180.59 737.77 164.74 732.14 150.17 724.97 C 148.69 723.69 147.64 725.35 146.53 726.24 C 144.71 726.51 142.85 726.62 141.01 726.47 C 126.07 724.98 111.13 723.54 96.18 722.21 C 95.50 705.47 95.76 688.71 95.42 671.97 C 95.29 644.32 94.66 616.70 94.47 589.06 C 94.20 574.26 94.49 559.44 93.87 544.65 C 97.83 544.70 101.79 544.69 105.75 544.70 C 105.78 528.26 105.74 511.81 105.77 495.37 C 105.78 494.09 105.78 492.81 105.78 491.54 C 105.75 484.77 105.72 478.00 105.86 471.23 C 105.86 470.26 105.86 468.33 105.85 467.36 C 105.65 450.87 105.83 434.39 105.76 417.91 C 101.34 417.78 96.91 417.74 92.50 418.04 C 91.51 332.93 90.58 247.81 89.57 162.69 C 108.12 162.64 126.67 162.75 145.22 162.64 C 145.22 159.53 145.22 156.42 145.22 153.32 C 123.52 153.21 101.82 153.29 80.12 153.28 C 80.45 209.52 81.49 265.75 81.85 321.99 C 82.79 353.99 82.17 386.03 83.24 418.03 C 77.90 417.68 72.54 417.80 67.20 417.89 C 66.97 434.92 67.54 451.96 66.89 468.97 C 66.85 470.29 66.86 471.60 66.90 472.92 C 67.31 479.12 67.17 485.34 67.15 491.55 C 67.15 492.80 67.15 494.07 67.14 495.33 C 67.20 511.79 67.15 528.24 67.18 544.69 C 72.96 544.69 78.73 544.72 84.51 544.64 C 85.20 606.66 85.92 668.67 86.64 730.69 C 104.95 732.63 123.30 734.07 141.59 736.08 C 158.65 745.06 177.57 751.61 197.04 751.48 C 212.45 751.49 227.74 746.35 240.15 737.24 C 255.31 726.30 266.32 710.69 275.31 694.52 C 280.10 685.39 285.18 676.23 287.60 666.12 C 298.26 630.13 309.17 593.86 326.52 560.42 C 335.15 544.63 345.32 529.73 355.84 515.15 C 354.40 525.24 351.62 535.07 349.32 544.99 C 337.98 592.17 325.25 639.39 321.75 687.97 C 320.79 707.45 320.59 727.66 327.61 746.17 C 331.55 756.53 338.66 766.09 348.78 771.06 C 369.78 781.00 394.94 784.67 416.99 775.97 C 437.24 768.24 452.64 751.75 464.12 733.87 C 465.13 742.38 466.65 750.86 469.40 759.01 C 468.43 764.96 468.05 771.33 470.86 776.88 C 474.94 786.10 484.52 791.70 494.25 793.00 L 0.00 793.00 L 0.00 0.00 Z" />
<path fill="#e1b034" d=" M 202.28 0.00 L 1122.16 0.00 C 1122.20 52.88 1122.16 105.76 1122.18 158.65 C 1119.59 158.74 1116.85 158.51 1114.48 159.66 C 1111.73 161.30 1111.72 165.80 1114.49 167.43 C 1116.84 168.63 1119.60 168.17 1122.16 168.26 C 1122.13 223.05 1122.30 277.84 1122.08 332.63 C 923.71 332.63 725.35 332.63 526.99 332.63 C 513.67 332.83 500.32 332.12 487.03 333.22 C 482.02 333.48 477.04 332.65 472.04 332.63 C 382.13 332.65 292.21 332.62 202.29 332.64 C 202.19 327.42 201.63 322.23 201.62 317.02 C 201.64 289.45 201.63 261.88 201.63 234.32 C 182.90 234.30 164.18 234.32 145.46 234.31 C 145.42 179.99 145.45 125.67 145.44 71.36 C 164.14 71.34 182.85 71.32 201.55 71.37 C 202.01 47.58 200.94 23.76 202.28 0.00 Z" />
<path fill="#fffefe" d=" M 1122.16 0.00 L 1262.00 0.00 L 1262.00 467.93 C 1250.91 467.93 1239.82 467.93 1228.74 467.93 C 1228.67 464.56 1228.59 461.20 1228.57 457.84 C 1229.34 363.21 1230.25 268.58 1230.89 173.95 C 1230.92 169.98 1231.50 165.98 1230.89 162.04 C 1229.51 159.95 1227.62 157.53 1225.11 156.97 C 1190.80 157.49 1156.49 158.26 1122.18 158.65 C 1122.16 105.76 1122.20 52.88 1122.16 0.00 Z" />
<path fill="#fffefe" d=" M 215.38 17.15 C 301.23 17.07 387.08 17.17 472.93 17.11 C 472.85 50.73 472.93 84.35 472.87 117.97 C 472.80 131.93 473.21 145.89 472.78 159.85 C 451.28 142.65 430.46 124.57 410.59 105.49 C 403.76 97.68 396.26 90.44 389.77 82.33 C 383.01 71.88 376.05 61.49 367.61 52.31 C 363.32 46.74 358.95 41.12 355.94 34.73 C 354.32 33.88 352.78 32.80 350.98 32.38 C 348.82 32.49 346.78 33.25 344.72 33.81 C 340.24 41.29 335.94 48.87 331.67 56.46 C 328.98 61.34 325.26 65.52 321.95 69.98 C 299.13 99.15 273.63 126.37 244.85 149.76 C 240.15 153.43 235.61 157.39 230.28 160.13 C 226.61 161.68 225.97 165.97 224.46 169.20 C 225.99 172.57 228.20 175.66 231.31 177.75 C 253.10 193.68 272.57 212.51 290.92 232.24 C 298.69 240.75 306.41 249.34 313.15 258.70 C 315.60 262.29 319.63 264.38 322.08 267.98 C 328.86 277.81 336.07 287.37 341.67 297.97 C 344.25 299.85 345.83 302.65 347.92 304.99 C 350.20 305.37 353.16 305.89 354.86 303.88 C 357.66 300.93 359.58 297.30 361.93 294.00 C 392.44 249.81 429.51 209.87 472.78 177.92 C 473.24 215.29 472.66 252.66 472.95 290.03 C 473.42 298.56 472.68 307.09 472.84 315.63 C 387.03 315.58 301.22 315.63 215.40 315.61 C 215.38 216.12 215.42 116.64 215.38 17.15 Z" />
<path fill="#fffefe" d=" M 496.84 17.16 C 700.14 17.09 903.44 17.13 1106.75 17.14 C 1106.73 116.63 1106.77 216.12 1106.73 315.62 C 903.49 315.62 700.25 315.57 497.01 315.64 C 496.57 265.75 496.95 215.84 496.82 165.94 C 496.83 116.34 496.80 66.75 496.84 17.16 Z" />
<path fill="#11208d" d=" M 344.72 33.81 C 346.78 33.25 348.82 32.49 350.98 32.38 C 352.78 32.80 354.32 33.88 355.94 34.73 C 358.95 41.12 363.32 46.74 367.61 52.31 C 376.05 61.49 383.01 71.88 389.77 82.33 C 396.26 90.44 403.76 97.68 410.59 105.49 C 430.46 124.57 451.28 142.65 472.78 159.85 C 473.52 165.83 473.25 171.93 472.78 177.92 C 429.51 209.87 392.44 249.81 361.93 294.00 C 359.58 297.30 357.66 300.93 354.86 303.88 C 353.16 305.89 350.20 305.37 347.92 304.99 C 345.83 302.65 344.25 299.85 341.67 297.97 C 336.07 287.37 328.86 277.81 322.08 267.98 C 319.63 264.38 315.60 262.29 313.15 258.70 C 306.41 249.34 298.69 240.75 290.92 232.24 C 272.57 212.51 253.10 193.68 231.31 177.75 C 228.20 175.66 225.99 172.57 224.46 169.20 C 225.97 165.97 226.61 161.68 230.28 160.13 C 235.61 157.39 240.15 153.43 244.85 149.76 C 273.63 126.37 299.13 99.15 321.95 69.98 C 325.26 65.52 328.98 61.34 331.67 56.46 C 335.94 48.87 340.24 41.29 344.72 33.81 Z" />
<path fill="#fffefe" d=" M 346.85 67.56 C 353.30 66.82 359.71 69.23 364.78 73.11 C 367.66 75.27 369.92 78.11 372.63 80.46 C 385.83 91.83 398.52 103.85 410.03 116.95 C 422.28 130.68 432.88 145.77 443.04 161.08 C 445.38 164.55 444.77 168.99 444.64 172.96 C 440.29 183.39 432.82 192.12 426.58 201.44 C 422.77 207.53 417.89 212.84 413.29 218.32 C 398.89 234.56 383.09 249.59 365.90 262.86 C 362.26 265.61 358.96 269.82 353.97 269.76 C 349.10 270.27 344.88 267.36 340.86 265.05 C 328.15 256.80 317.52 245.82 307.45 234.60 C 301.04 228.00 294.20 221.82 288.02 214.99 C 277.91 203.49 268.85 191.08 260.79 178.07 C 260.05 176.74 258.71 175.97 257.49 175.14 C 256.12 172.20 256.45 168.92 256.45 165.78 C 259.54 159.17 264.80 154.07 269.26 148.43 C 281.05 129.69 296.14 113.30 312.17 98.13 C 314.54 96.18 316.53 93.83 318.37 91.39 C 326.08 84.46 333.91 77.66 341.44 70.54 C 343.03 69.21 345.02 68.51 346.85 67.56 Z" />
<path fill="#11208d" d=" M 511.91 70.34 C 529.15 70.25 546.38 70.32 563.62 70.31 C 563.56 138.66 563.73 207.02 563.53 275.37 C 546.45 275.36 529.38 275.29 512.30 275.41 C 511.49 269.97 511.92 264.46 511.83 258.99 C 511.88 196.11 511.72 133.22 511.91 70.34 Z" />
<path fill="#11208d" d=" M 591.20 70.30 C 639.88 70.36 688.57 70.17 737.26 70.40 C 737.02 83.49 737.59 96.62 736.98 109.68 C 720.34 109.94 703.68 109.70 687.03 109.80 C 681.69 109.78 676.35 109.77 671.01 109.81 C 662.59 110.06 654.09 109.15 645.73 110.39 C 645.82 124.44 645.78 138.51 645.76 152.57 C 673.08 152.83 700.40 152.58 727.72 152.69 C 728.46 160.42 728.05 168.19 728.17 175.94 C 728.09 181.51 728.48 187.11 727.74 192.66 C 700.56 192.51 673.38 192.70 646.20 192.56 C 645.29 201.66 646.00 210.83 645.78 219.95 C 645.86 225.18 645.47 230.43 646.19 235.63 C 676.54 235.57 706.88 235.57 737.23 235.64 C 737.24 247.12 737.21 258.59 737.25 270.07 C 737.29 271.87 736.93 273.65 736.71 275.43 C 688.25 275.27 639.78 275.36 591.32 275.38 C 591.03 264.93 591.28 254.46 591.18 244.00 C 591.20 186.10 591.17 128.20 591.20 70.30 Z" />
<path fill="#11208d" d=" M 764.67 70.36 C 813.31 70.24 861.94 70.30 910.57 70.33 C 910.56 83.47 910.55 96.61 910.57 109.75 C 898.38 109.84 886.19 109.74 874.00 109.80 C 859.64 109.76 845.28 109.80 830.92 109.78 C 827.07 109.76 823.21 109.66 819.40 110.15 C 819.42 124.32 819.40 138.49 819.40 152.67 C 847.74 152.68 876.07 152.67 904.40 152.67 C 904.49 165.98 904.43 179.29 904.44 192.59 C 876.10 192.63 847.77 192.60 819.43 192.61 C 819.38 206.94 819.39 221.27 819.43 235.60 C 849.80 235.61 880.17 235.58 910.54 235.61 C 910.55 248.86 910.62 262.10 910.50 275.35 C 861.91 275.35 813.32 275.35 764.73 275.35 C 764.64 207.02 764.75 138.69 764.67 70.36 Z" />
<path fill="#11208d" d=" M 941.21 70.30 C 988.92 70.36 1036.63 70.18 1084.33 70.39 C 1084.31 83.48 1084.28 96.57 1084.34 109.66 C 1069.22 109.98 1054.09 109.67 1038.97 109.86 C 1025.35 109.82 1011.70 109.74 998.07 109.80 C 996.21 109.85 994.39 110.11 992.57 110.34 C 992.66 124.43 992.61 138.52 992.60 152.62 C 1020.97 152.71 1049.36 152.72 1077.74 152.61 C 1078.49 157.05 1078.17 161.56 1078.21 166.04 C 1078.22 174.87 1078.21 183.71 1078.21 192.55 C 1049.68 192.70 1021.15 192.55 992.62 192.63 C 992.61 206.94 992.60 221.26 992.63 235.57 C 1023.18 235.66 1053.74 235.51 1084.30 235.65 C 1084.33 245.45 1084.30 255.25 1084.32 265.04 C 1084.29 268.50 1084.60 272.04 1083.70 275.42 C 1036.24 275.29 988.79 275.35 941.33 275.39 C 941.04 207.03 941.28 138.66 941.21 70.30 Z" />
<path fill="#11208d" d=" M 344.20 77.10 C 346.40 75.34 349.24 74.34 352.07 74.66 C 357.36 75.04 361.52 78.63 365.80 81.37 C 370.79 84.53 374.79 88.92 379.00 93.01 C 400.00 113.91 419.47 136.55 435.27 161.69 C 437.75 165.51 441.65 170.22 439.51 174.95 C 421.24 198.92 402.91 223.11 380.97 243.92 C 377.41 247.34 373.98 251.05 369.54 253.34 C 364.63 256.00 360.99 260.57 355.81 262.79 C 351.71 264.71 346.64 263.80 343.25 260.90 C 333.64 252.83 324.44 244.28 315.56 235.42 C 302.23 221.38 288.97 207.24 276.93 192.07 C 273.34 187.56 268.90 183.54 266.73 178.08 C 265.22 173.51 263.91 168.54 265.68 163.85 C 272.04 150.29 281.98 138.93 291.60 127.62 C 295.83 123.23 299.92 118.71 304.04 114.22 C 316.63 101.01 330.22 88.80 344.20 77.10 Z" />
<path fill="#fffefe" d=" M 350.42 94.17 C 351.55 95.17 351.85 96.74 352.39 98.08 C 357.08 111.82 360.81 125.86 365.82 139.50 C 362.76 139.53 359.70 139.53 356.65 139.57 C 356.65 153.91 356.66 168.25 356.64 182.59 C 352.59 182.59 348.54 182.61 344.49 182.53 C 345.40 176.39 345.47 170.18 345.85 164.00 C 346.64 155.87 347.06 147.69 347.58 139.53 C 344.71 139.53 341.84 139.53 338.98 139.52 C 339.56 134.26 341.32 129.24 342.51 124.11 C 345.11 114.12 347.11 103.96 350.42 94.17 Z" />
<path fill="#fffefe" d=" M 311.53 152.56 C 315.24 150.12 319.68 149.09 323.28 146.44 C 327.21 149.85 331.81 152.45 335.35 156.31 C 331.97 157.38 328.53 158.24 325.13 159.23 C 321.51 160.87 317.45 162.56 315.54 166.31 C 314.29 168.22 313.83 170.88 315.12 172.89 C 317.51 176.47 321.27 178.72 324.68 181.20 C 327.90 183.71 332.24 183.44 336.08 184.05 C 352.23 185.53 369.07 185.31 384.32 179.16 C 387.68 176.57 390.94 173.74 393.49 170.33 C 393.46 169.46 393.38 167.73 393.34 166.86 C 392.21 165.03 391.29 162.88 389.28 161.84 C 385.30 158.95 380.21 159.55 375.59 159.57 C 374.32 156.22 372.95 152.90 372.02 149.43 C 376.34 149.98 380.65 150.87 384.78 152.25 C 386.62 152.97 388.42 153.81 390.22 154.63 C 390.60 155.53 391.00 156.42 391.42 157.31 C 391.52 157.39 391.72 157.56 391.82 157.64 C 395.91 160.64 401.84 163.36 402.49 169.00 C 401.03 176.02 394.63 180.40 389.23 184.42 C 386.06 187.01 381.80 187.15 377.95 187.90 C 375.65 188.34 373.32 188.57 371.02 188.92 C 351.43 191.93 330.82 191.27 312.09 184.34 C 305.26 181.89 299.13 176.83 296.46 169.97 C 295.67 166.75 297.05 163.41 299.11 160.97 C 302.32 156.97 307.33 155.25 311.53 152.56 Z" />
<path fill="#b69ea6" d=" M 384.78 152.25 C 388.75 152.79 392.46 154.36 395.97 156.25 C 394.48 156.43 393.10 156.89 391.82 157.64 C 391.72 157.56 391.52 157.39 391.42 157.31 C 391.00 156.42 390.60 155.53 390.22 154.63 C 388.42 153.81 386.62 152.97 384.78 152.25 Z" />
<path fill="#0d0c0c" d=" M 80.12 153.28 C 101.82 153.29 123.52 153.21 145.22 153.32 C 145.22 156.42 145.22 159.53 145.22 162.64 C 126.67 162.75 108.12 162.64 89.57 162.69 C 90.58 247.81 91.51 332.93 92.50 418.04 C 89.42 418.21 86.32 418.21 83.24 418.03 C 82.17 386.03 82.79 353.99 81.85 321.99 C 81.49 265.75 80.45 209.52 80.12 153.28 Z" />
<path fill="#0d0c0c" d=" M 1122.18 158.65 C 1156.49 158.26 1190.80 157.49 1225.11 156.97 C 1227.62 157.53 1229.51 159.95 1230.89 162.04 C 1231.50 165.98 1230.92 169.98 1230.89 173.95 C 1230.25 268.58 1229.34 363.21 1228.57 457.84 C 1228.52 461.41 1228.42 464.98 1228.37 468.55 C 1225.21 468.53 1222.06 468.52 1218.93 468.29 C 1219.51 453.87 1219.17 439.42 1219.41 424.98 C 1220.11 338.82 1220.83 252.66 1221.54 166.49 C 1188.42 167.15 1155.28 167.51 1122.16 168.26 C 1119.60 168.17 1116.84 168.63 1114.49 167.43 C 1111.72 165.80 1111.73 161.30 1114.48 159.66 C 1116.85 158.51 1119.59 158.74 1122.18 158.65 Z" />
<path fill="#fffefe" d=" M 341.63 235.56 C 344.76 221.47 344.59 206.97 344.63 192.62 C 348.60 192.61 352.57 192.62 356.54 192.58 C 357.62 199.33 357.07 206.22 358.14 212.97 C 358.39 220.53 359.37 228.03 359.64 235.59 C 353.64 235.59 347.63 235.63 341.63 235.56 Z" />
<path fill="#11208d" d=" M 401.97 269.46 C 407.52 267.00 413.77 271.04 416.15 276.12 C 418.12 279.42 417.53 283.40 417.31 287.05 C 416.27 289.37 415.35 291.77 413.89 293.86 C 412.21 296.14 409.51 297.27 407.13 298.62 C 401.95 298.82 397.25 295.31 395.28 290.65 C 393.31 287.03 393.29 282.85 393.52 278.86 C 395.28 274.99 397.72 270.93 401.97 269.46 Z" />
<path fill="#fffefe" d=" M 396.64 279.04 C 397.22 276.19 398.85 272.97 402.04 272.50 C 405.70 271.99 410.61 271.57 412.92 275.14 C 415.70 279.60 414.55 285.24 413.21 290.00 C 412.71 289.85 411.73 289.56 411.23 289.42 C 410.97 289.35 410.45 289.20 410.19 289.13 C 409.71 287.85 409.25 286.57 408.78 285.29 C 410.62 282.33 412.58 278.90 410.54 275.50 C 406.86 275.37 403.18 275.33 399.50 275.33 C 399.50 280.80 399.53 286.26 399.44 291.73 C 400.21 291.72 401.75 291.69 402.52 291.68 C 402.53 289.42 402.56 287.16 402.61 284.90 C 406.24 284.84 406.93 288.54 408.33 291.10 C 409.08 291.93 409.84 292.76 410.61 293.59 C 407.94 294.84 404.68 295.42 401.91 294.20 C 397.21 290.85 395.84 284.49 396.64 279.04 Z" />
<path fill="#11208d" d=" M 399.50 275.33 C 403.18 275.33 406.86 275.37 410.54 275.50 C 412.58 278.90 410.62 282.33 408.78 285.29 C 409.25 286.57 409.71 287.85 410.19 289.13 C 410.42 289.81 410.86 291.19 411.08 291.87 C 410.40 291.68 409.02 291.30 408.33 291.10 C 406.93 288.54 406.24 284.84 402.61 284.90 C 402.56 287.16 402.53 289.42 402.52 291.68 C 401.75 291.69 400.21 291.72 399.44 291.73 C 399.53 286.26 399.50 280.80 399.50 275.33 Z" />
<path fill="#fffefe" d=" M 402.55 278.56 C 404.55 278.56 406.54 278.57 408.54 278.58 C 408.50 279.56 408.46 280.55 408.43 281.54 C 406.45 281.61 404.49 281.67 402.52 281.71 C 402.53 280.66 402.54 279.61 402.55 278.56 Z" />
<path fill="#b69ea6" d=" M 410.19 289.13 C 410.45 289.20 410.97 289.35 411.23 289.42 C 411.73 289.56 412.71 289.85 413.21 290.00 C 412.33 291.19 411.47 292.38 410.61 293.59 C 409.84 292.76 409.08 291.93 408.33 291.10 C 409.02 291.30 410.40 291.68 411.08 291.87 C 410.86 291.19 410.42 289.81 410.19 289.13 Z" />
<path fill="#e1b034" d=" M 67.20 417.89 C 72.54 417.80 77.90 417.68 83.24 418.03 C 86.32 418.21 89.42 418.21 92.50 418.04 C 96.91 417.74 101.34 417.78 105.76 417.91 C 105.83 434.39 105.65 450.87 105.85 467.36 C 92.85 467.58 79.88 468.63 66.89 468.97 C 67.54 451.96 66.97 434.92 67.20 417.89 Z" />
<path fill="#b69ea6" d=" M 1228.37 468.55 C 1228.42 464.98 1228.52 461.41 1228.57 457.84 C 1228.59 461.20 1228.67 464.56 1228.74 467.93 C 1239.82 467.93 1250.91 467.93 1262.00 467.93 L 1262.00 578.22 C 1250.68 578.84 1239.33 578.38 1228.01 578.44 C 1227.76 582.35 1227.53 586.26 1227.47 590.19 C 1227.49 585.98 1227.40 581.79 1227.35 577.59 C 1224.31 577.66 1221.27 577.71 1218.25 578.05 C 1207.40 579.01 1196.48 578.31 1185.60 578.45 C 1185.56 541.62 1185.47 504.79 1185.65 467.96 C 1196.74 468.07 1207.85 467.54 1218.93 468.29 C 1222.06 468.52 1225.21 468.53 1228.37 468.55 Z" />
<path fill="#d70e0d" d=" M 66.89 468.97 C 79.88 468.63 92.85 467.58 105.85 467.36 C 105.86 468.33 105.86 470.26 105.86 471.23 C 92.87 471.77 79.90 472.69 66.90 472.92 C 66.86 471.60 66.85 470.29 66.89 468.97 Z" />
<path fill="#e1b034" d=" M 66.90 472.92 C 79.90 472.69 92.87 471.77 105.86 471.23 C 105.72 478.00 105.75 484.77 105.78 491.54 C 92.90 491.61 80.03 491.60 67.15 491.55 C 67.17 485.34 67.31 479.12 66.90 472.92 Z" />
<path fill="#fffefe" d=" M 1195.83 478.91 C 1214.52 478.86 1233.22 478.81 1251.91 478.94 C 1251.85 487.05 1252.03 495.16 1251.78 503.27 C 1233.16 503.25 1214.53 503.29 1195.91 503.25 C 1195.71 495.14 1195.83 487.02 1195.83 478.91 Z" />
<path fill="#e1b034" d=" M 741.23 484.13 C 752.96 481.24 766.99 486.81 771.83 498.27 C 775.03 505.31 773.62 513.61 769.64 520.04 C 766.70 524.12 762.64 527.25 758.21 529.57 C 751.48 532.01 744.11 532.42 737.15 530.72 C 732.51 529.26 728.18 526.86 724.49 523.70 C 720.27 519.10 717.12 513.28 716.74 506.96 C 716.13 499.46 719.32 492.06 724.52 486.74 C 725.90 488.22 727.32 489.68 728.70 491.17 C 732.36 488.03 736.41 485.09 741.23 484.13 Z" />
<path fill="#0d0c0c" d=" M 67.15 491.55 C 80.03 491.60 92.90 491.61 105.78 491.54 C 105.78 492.81 105.78 494.09 105.77 495.37 C 92.90 495.35 80.02 495.42 67.14 495.33 C 67.15 494.07 67.15 492.80 67.15 491.55 Z" />
<path fill="#d70e0d" d=" M 352.76 497.72 C 356.36 493.77 363.19 491.23 367.57 495.42 C 372.94 500.61 370.79 508.84 370.05 515.38 C 365.53 540.05 358.58 564.20 353.03 588.64 C 348.12 609.13 343.60 629.71 340.19 650.51 C 336.53 673.13 334.00 696.13 335.75 719.07 C 336.93 730.18 339.13 741.79 345.93 750.96 C 349.45 755.79 354.69 758.98 360.26 760.94 C 372.24 765.51 385.26 768.23 398.10 766.53 C 412.10 764.88 424.95 757.69 435.01 748.01 C 445.91 737.47 454.21 724.53 461.07 711.08 C 463.51 706.78 462.15 701.68 462.41 696.99 C 462.54 657.86 465.84 618.80 470.89 580.02 C 473.80 560.24 476.65 540.38 481.77 521.03 C 483.60 514.87 485.26 508.44 489.07 503.16 C 491.73 499.31 497.46 497.83 501.41 500.54 C 505.71 503.54 506.93 509.02 508.02 513.83 C 512.16 534.99 512.15 556.73 510.44 578.15 C 508.45 601.83 504.19 625.31 498.22 648.31 C 492.75 669.12 486.12 689.69 477.29 709.34 C 476.34 711.43 476.58 713.77 476.64 716.01 C 477.44 727.91 478.30 739.89 481.48 751.44 L 480.57 752.00 C 479.01 750.71 477.53 749.33 476.04 747.98 C 473.38 751.36 471.00 755.00 469.40 759.01 C 466.65 750.86 465.13 742.38 464.12 733.87 C 452.64 751.75 437.24 768.24 416.99 775.97 C 394.94 784.67 369.78 781.00 348.78 771.06 C 338.66 766.09 331.55 756.53 327.61 746.17 C 320.59 727.66 320.79 707.45 321.75 687.97 C 325.25 639.39 337.98 592.17 349.32 544.99 C 351.62 535.07 354.40 525.24 355.84 515.15 C 345.32 529.73 335.15 544.63 326.52 560.42 C 309.17 593.86 298.26 630.13 287.60 666.12 C 285.18 676.23 280.10 685.39 275.31 694.52 C 266.32 710.69 255.31 726.30 240.15 737.24 C 227.74 746.35 212.45 751.49 197.04 751.48 C 177.57 751.61 158.65 745.06 141.59 736.08 C 144.26 736.34 146.94 736.50 149.61 736.69 C 149.93 733.67 150.24 730.64 150.54 727.62 C 148.52 727.71 146.49 727.81 144.47 727.72 C 145.15 727.21 145.87 726.76 146.53 726.24 C 147.64 725.35 148.69 723.69 150.17 724.97 C 164.74 732.14 180.59 737.77 197.04 737.60 C 210.02 737.59 222.86 733.06 233.15 725.17 C 246.33 715.12 255.85 701.14 263.73 686.74 C 267.44 679.54 271.48 672.40 273.61 664.53 C 275.80 656.98 277.95 649.43 280.32 641.94 C 292.18 603.96 304.88 565.48 327.28 532.21 C 335.20 520.33 342.78 508.02 352.76 497.72 Z" />
<path fill="#e1b034" d=" M 67.14 495.33 C 80.02 495.42 92.90 495.35 105.77 495.37 C 105.74 511.81 105.78 528.26 105.75 544.70 C 101.79 544.69 97.83 544.70 93.87 544.65 C 90.75 544.61 87.63 544.60 84.51 544.64 C 78.73 544.72 72.96 544.69 67.18 544.69 C 67.15 528.24 67.20 511.79 67.14 495.33 Z" />
<path fill="#d70e0d" d=" M 1195.36 503.25 L 1195.91 503.25 C 1214.53 503.29 1233.16 503.25 1251.78 503.27 L 1252.54 503.27 C 1252.43 525.06 1252.43 546.85 1252.54 568.64 C 1233.48 568.58 1214.41 568.54 1195.35 568.65 C 1195.47 546.85 1195.46 525.05 1195.36 503.25 Z" />
<path fill="#d70e0d" d=" M 1000.09 513.26 C 1020.66 510.54 1041.37 509.15 1062.06 507.66 C 1068.63 506.82 1074.04 513.77 1073.38 519.96 C 1072.87 524.83 1069.06 528.51 1065.17 531.05 C 1058.33 535.33 1050.59 537.84 1042.94 540.23 C 1028.50 544.46 1013.73 547.44 998.94 550.16 C 970.19 555.06 940.55 559.78 911.55 554.07 C 908.78 553.71 905.98 552.58 903.21 552.91 C 897.57 556.61 893.53 562.22 889.58 567.57 C 880.01 580.98 870.78 594.74 863.83 609.72 C 858.81 621.06 853.88 632.66 852.27 645.07 C 849.69 662.11 852.52 679.53 858.17 695.68 C 862.48 708.93 869.14 721.30 873.07 734.68 C 897.00 738.20 921.01 741.22 945.03 744.01 C 972.92 746.88 1000.95 749.94 1029.02 748.48 C 1035.86 747.83 1043.12 747.35 1049.02 743.44 C 1050.15 744.19 1051.30 744.93 1052.46 745.67 C 1049.32 745.73 1045.12 747.07 1045.56 751.02 C 1046.00 756.22 1052.33 755.47 1056.08 755.47 C 1047.76 760.85 1037.61 761.77 1027.98 762.47 C 999.91 763.81 971.90 760.72 944.03 757.85 C 920.21 755.12 896.43 752.11 872.71 748.68 C 869.63 753.51 864.74 757.10 859.02 757.99 C 841.52 761.05 823.75 763.48 805.94 762.68 C 793.53 762.18 781.23 758.74 770.50 752.46 C 763.28 748.18 756.36 743.42 749.56 738.51 C 746.86 736.46 743.85 733.76 744.07 730.05 C 743.71 726.09 747.01 722.83 750.60 721.83 C 757.28 720.19 764.19 721.11 770.97 721.54 C 800.06 724.12 828.92 728.71 857.85 732.60 C 852.18 718.12 845.43 703.99 841.64 688.86 C 836.32 669.73 835.89 649.14 841.28 629.97 C 849.35 602.12 864.93 577.20 882.23 554.20 C 883.70 552.33 885.27 550.56 886.85 548.78 C 868.95 544.80 851.25 539.84 833.11 537.10 C 813.34 534.37 792.42 532.43 773.34 539.68 C 775.40 558.68 773.41 577.86 769.84 596.56 C 763.21 629.60 751.16 661.44 735.36 691.17 C 722.38 715.09 707.04 738.27 686.56 756.47 C 675.46 766.14 662.08 774.54 647.00 775.34 C 639.04 775.49 630.71 773.64 624.30 768.72 C 621.40 766.53 619.37 763.47 617.35 760.51 C 605.97 766.48 592.56 768.53 579.99 765.67 C 573.03 764.05 565.69 761.59 561.07 755.80 C 554.11 747.40 552.40 736.18 551.47 725.67 C 542.92 737.14 533.88 748.35 523.32 758.04 C 520.90 754.06 517.54 750.71 513.62 748.21 C 522.91 739.55 531.06 729.76 538.65 719.60 C 543.23 712.82 548.90 706.52 552.19 699.00 C 556.68 660.12 567.32 622.19 580.50 585.42 C 586.20 570.34 591.91 555.16 599.96 541.13 C 602.41 537.06 604.99 532.85 608.88 529.99 C 612.61 527.11 618.61 527.62 621.47 531.51 C 624.52 535.63 624.38 541.12 624.40 546.02 C 623.60 563.86 619.76 581.42 614.73 598.51 C 604.37 632.95 589.07 665.80 570.62 696.63 C 568.66 700.25 565.34 703.54 565.47 707.93 C 565.05 718.40 564.81 729.12 567.80 739.28 C 569.16 743.55 571.51 748.11 575.90 749.89 C 588.39 755.22 603.17 753.43 614.52 746.19 C 615.42 730.62 622.17 716.19 629.90 702.92 C 636.93 691.38 644.75 680.03 655.09 671.21 C 659.04 667.65 665.82 665.69 669.95 670.03 C 674.50 675.40 671.67 682.90 670.21 688.93 C 662.63 713.37 648.82 736.37 629.10 752.91 C 630.53 755.02 631.86 757.41 634.19 758.69 C 641.01 762.47 649.39 762.04 656.50 759.28 C 667.52 755.07 676.67 747.23 684.91 738.98 C 698.37 724.99 709.41 708.86 719.02 692.05 C 733.35 666.71 744.62 639.60 752.14 611.46 C 757.50 591.09 760.98 570.03 760.15 548.92 C 754.32 552.33 747.96 555.73 740.99 555.38 C 735.28 555.17 729.98 551.74 727.19 546.80 C 723.02 539.67 723.21 531.08 723.76 523.11 L 724.49 523.70 C 728.18 526.86 732.51 529.26 737.15 530.72 C 737.79 534.35 737.44 539.07 740.83 541.45 C 747.11 541.84 751.95 537.21 756.36 533.41 C 757.66 532.55 757.75 530.91 758.21 529.57 C 762.64 527.25 766.70 524.12 769.64 520.04 C 770.07 521.93 770.48 523.82 770.91 525.72 C 793.21 518.25 817.21 520.47 840.01 524.15 C 860.25 527.73 880.10 533.17 900.16 537.62 C 915.20 528.13 932.67 523.60 950.06 520.75 C 966.72 518.14 983.35 515.33 1000.09 513.26 Z" />
<path fill="#fffefe" d=" M 971.12 531.47 C 997.64 527.23 1024.35 523.88 1051.18 522.53 C 1039.99 527.42 1027.94 529.86 1016.11 532.64 C 1006.08 534.73 996.03 536.70 985.90 538.24 C 965.18 541.64 944.01 544.31 923.04 541.82 C 938.45 535.98 954.95 534.09 971.12 531.47 Z" />
<path fill="#fffefe" d=" M 488.60 556.08 C 490.62 545.25 492.32 534.31 495.52 523.75 C 499.28 548.04 497.56 572.83 494.38 597.09 C 490.67 622.46 485.03 647.63 476.66 671.88 C 478.59 633.12 482.11 594.37 488.60 556.08 Z" />
<path fill="#fffefe" d=" M 737.15 530.72 C 744.11 532.42 751.48 532.01 758.21 529.57 C 757.75 530.91 757.66 532.55 756.36 533.41 C 751.95 537.21 747.11 541.84 740.83 541.45 C 737.44 539.07 737.79 534.35 737.15 530.72 Z" />
<path fill="#fffefe" d=" M 773.34 539.68 C 792.42 532.43 813.34 534.37 833.11 537.10 C 851.25 539.84 868.95 544.80 886.85 548.78 C 885.27 550.56 883.70 552.33 882.23 554.20 C 864.93 577.20 849.35 602.12 841.28 629.97 C 835.89 649.14 836.32 669.73 841.64 688.86 C 845.43 703.99 852.18 718.12 857.85 732.60 C 828.92 728.71 800.06 724.12 770.97 721.54 C 764.19 721.11 757.28 720.19 750.60 721.83 C 747.01 722.83 743.71 726.09 744.07 730.05 C 743.85 733.76 746.86 736.46 749.56 738.51 C 756.36 743.42 763.28 748.18 770.50 752.46 C 781.23 758.74 793.53 762.18 805.94 762.68 C 823.75 763.48 841.52 761.05 859.02 757.99 C 864.74 757.10 869.63 753.51 872.71 748.68 C 896.43 752.11 920.21 755.12 944.03 757.85 C 971.90 760.72 999.91 763.81 1027.98 762.47 C 1037.61 761.77 1047.76 760.85 1056.08 755.47 C 1111.19 755.35 1166.30 755.43 1221.42 755.43 C 1223.02 753.83 1224.63 752.23 1226.23 750.62 C 1226.43 697.14 1227.12 643.67 1227.47 590.19 C 1227.53 586.26 1227.76 582.35 1228.01 578.44 C 1239.33 578.38 1250.68 578.84 1262.00 578.22 L 1262.00 793.00 L 502.36 793.00 C 511.02 791.38 519.38 786.29 523.21 778.12 C 526.38 771.86 525.97 764.40 523.32 758.04 C 533.88 748.35 542.92 737.14 551.47 725.67 C 552.40 736.18 554.11 747.40 561.07 755.80 C 565.69 761.59 573.03 764.05 579.99 765.67 C 592.56 768.53 605.97 766.48 617.35 760.51 C 619.37 763.47 621.40 766.53 624.30 768.72 C 630.71 773.64 639.04 775.49 647.00 775.34 C 662.08 774.54 675.46 766.14 686.56 756.47 C 707.04 738.27 722.38 715.09 735.36 691.17 C 751.16 661.44 763.21 629.60 769.84 596.56 C 773.41 577.86 775.40 558.68 773.34 539.68 Z" />
<path fill="#0d0c0c" d=" M 84.51 544.64 C 87.63 544.60 90.75 544.61 93.87 544.65 C 94.49 559.44 94.20 574.26 94.47 589.06 C 94.66 616.70 95.29 644.32 95.42 671.97 C 95.76 688.71 95.50 705.47 96.18 722.21 C 111.13 723.54 126.07 724.98 141.01 726.47 C 142.85 726.62 144.71 726.51 146.53 726.24 C 145.87 726.76 145.15 727.21 144.47 727.72 C 146.49 727.81 148.52 727.71 150.54 727.62 C 150.24 730.64 149.93 733.67 149.61 736.69 C 146.94 736.50 144.26 736.34 141.59 736.08 C 123.30 734.07 104.95 732.63 86.64 730.69 C 85.92 668.67 85.20 606.66 84.51 544.64 Z" />
<path fill="#fffefe" d=" M 585.73 613.03 C 592.74 592.03 599.89 570.94 610.21 551.30 C 608.11 573.06 602.17 594.27 594.72 614.77 C 588.16 632.62 580.32 649.98 571.48 666.82 C 575.16 648.63 580.13 630.72 585.73 613.03 Z" />
<path fill="#0d0c0c" d=" M 1218.25 578.05 C 1221.27 577.71 1224.31 577.66 1227.35 577.59 C 1227.40 581.79 1227.49 585.98 1227.47 590.19 C 1227.12 643.67 1226.43 697.14 1226.23 750.62 C 1224.63 752.23 1223.02 753.83 1221.42 755.43 C 1166.30 755.43 1111.19 755.35 1056.08 755.47 C 1052.33 755.47 1046.00 756.22 1045.56 751.02 C 1045.12 747.07 1049.32 745.73 1052.46 745.67 C 1054.28 745.78 1056.11 745.84 1057.96 745.86 C 1110.88 745.84 1163.79 745.86 1216.71 745.85 C 1216.74 719.89 1217.38 693.95 1217.41 668.00 C 1217.70 638.01 1217.59 608.02 1218.25 578.05 Z" />
<path fill="#fffefe" d=" M 632.08 730.79 C 636.86 716.24 645.53 703.28 654.79 691.22 C 649.71 705.65 641.69 718.93 632.08 730.79 Z" />
<path fill="#fffefe" d=" M 769.76 735.46 C 796.39 737.57 822.77 741.96 849.25 745.36 C 834.38 748.11 819.17 749.51 804.05 748.63 C 791.59 747.85 779.72 742.83 769.76 735.46 Z" />
<path fill="#e1b034" d=" M 481.48 751.44 C 485.11 749.05 488.67 746.27 493.06 745.46 C 499.98 743.68 507.31 745.09 513.62 748.21 C 517.54 750.71 520.90 754.06 523.32 758.04 C 525.97 764.40 526.38 771.86 523.21 778.12 C 519.38 786.29 511.02 791.38 502.36 793.00 L 494.25 793.00 C 484.52 791.70 474.94 786.10 470.86 776.88 C 468.05 771.33 468.43 764.96 469.40 759.01 C 471.00 755.00 473.38 751.36 476.04 747.98 C 477.53 749.33 479.01 750.71 480.57 752.00 L 481.48 751.44 Z" />
</svg>
